<svg xmlns="http://www.w3.org/2000/svg" viewBox="0 0 32 32">
  <defs>
    <linearGradient id="g" x1="0%" y1="0%" x2="100%" y2="100%">
      <stop offset="0%" stop-color="#d97706"/>
      <stop offset="100%" stop-color="#fbbf24"/>
    </linearGradient>
  </defs>
  <path fill="url(#g)" fill-rule="evenodd" clip-rule="evenodd" d="M20.03 16.095C18.4 19.828 15.36 22.762 11.57 24.251L10.79 24.559C7.47 25.861 4.82 28.435 3.41 31.706L0.35 31.706L0.41 31.562C2.07 27.745 2.16 23.425 0.65 19.546L0 17.88C-1.1 15.068-1.03 11.937 0.17 9.171C1.38 6.393 3.64 4.21 6.46 3.102L14.36 0L25 4.677L20.03 16.095ZM3.48 8.15L1.13 13.546L4.5 22.184L9.47 10.779L3.48 8.15ZM11.97 17.787C9.98 18.569 8.39 20.113 7.55 22.076L7.07 23.184L12.43 21.078C14.41 20.302 15.99 18.772 16.84 16.827L17.34 15.678L11.97 17.787ZM15.26 10.131C13.27 10.913 11.68 12.457 10.83 14.42L10.33 15.598L15.74 13.47C17.72 12.694 19.31 11.164 20.15 9.219L20.68 8L15.26 10.131ZM5.69 6.239L10.52 8.361L12.63 3.51L5.69 6.239ZM15.56 3.412L13.62 7.942L20.09 5.4L15.56 3.412Z"/>
</svg>
